<svg version="1.2" baseProfile="tiny" id="EdgeSVG_ojpRn" x="0px" y="0px" width="218.247px" height="118.434px" viewBox="0 0 218.247 118.434" xmlns:xlink="http://www.w3.org/1999/xlink" xmlns="http://www.w3.org/2000/svg">
  <linearGradient id="SVGID_1_" gradientUnits="userSpaceOnUse" x1="0" y1="59.2173" x2="218.2466" y2="59.2173">
    <stop offset="0" style="stop-color:#000000;stop-opacity:0.5"/>
    <stop offset="1" style="stop-color:#000000;stop-opacity:0.5"/>
  </linearGradient>
  <path fill="url(#SVGID_1_)" d="M216.058,51.137h-30.811V24.102h-2.277V10.987c0-1.161-0.849-2.106-1.892-2.106h-35.49V8.866h-1&#xD;&#xA;&#x9;&#x9;c-0.988,0-1.163-0.412-1.179-0.629V8.211h-0.738c-0.038-0.071-0.076-0.143-0.117-0.221l0.566-0.439&#xD;&#xA;&#x9;&#x9;c-0.071-0.092-0.193-0.295-0.354-0.57c-0.202-0.346-0.454-0.793-0.732-1.293l-0.892-1.612C138.898,0,138.898,0,138.204,0l-0.029,0&#xD;&#xA;&#x9;&#x9;H57.981v0h-1c-0.694,0-0.694,0-2.931,4.061L53.149,5.69c-0.277,0.5-0.53,0.947-0.729,1.29c-0.162,0.276-0.283,0.479-0.354,0.572&#xD;&#xA;&#x9;&#x9;l0.533,0.501c-0.029,0.055-0.057,0.107-0.083,0.158h-0.5l-0.237-0.003c-0.016,0.246-0.191,0.658-1.18,0.658h-1v0.015H22.215&#xD;&#xA;&#x9;&#x9;c-1.043,0-1.892,0.945-1.892,2.106v11.068L2.351,24.3C1.033,24.464,0,25.634,0,26.963V87.61c0,1.329,1.033,2.499,2.351,2.663&#xD;&#xA;&#x9;&#x9;l17.972,2.249v11.172c0,1.161,0.849,2.105,1.892,2.105h27.382h1c0.942,0,1.162,0.456,1.18,0.841v11.794h91.633v-11.81&#xD;&#xA;&#x9;&#x9;c0-0.193,0.085-0.825,1.179-0.825h1h35.49c1.043,0,1.892-0.944,1.892-2.105V90.577h2.277V63.542h30.811&#xD;&#xA;&#x9;&#x9;c1.207,0,2.189-0.981,2.189-2.188v-8.027C218.247,52.119,217.265,51.137,216.058,51.137z"/>
</svg>